<?xml version="1.0" encoding="utf-8" standalone="no"?>
<!DOCTYPE svg PUBLIC "-//W3C//DTD SVG 1.1//EN"
  "http://www.w3.org/Graphics/SVG/1.1/DTD/svg11.dtd">
<svg xmlns:xlink="http://www.w3.org/1999/xlink" width="1236.96pt" height="592.56pt" viewBox="0 0 1236.96 592.56" xmlns="http://www.w3.org/2000/svg" version="1.1">
 <metadata>
  <rdf:RDF xmlns:dc="http://purl.org/dc/elements/1.1/" xmlns:cc="http://creativecommons.org/ns#" xmlns:rdf="http://www.w3.org/1999/02/22-rdf-syntax-ns#">
   <cc:Work>
    <dc:type rdf:resource="http://purl.org/dc/dcmitype/StillImage"/>
    <dc:date>2025-11-18T10:22:59.272257</dc:date>
    <dc:format>image/svg+xml</dc:format>
    <dc:creator>
     <cc:Agent>
      <dc:title>Matplotlib v3.10.7, https://matplotlib.org/</dc:title>
     </cc:Agent>
    </dc:creator>
   </cc:Work>
  </rdf:RDF>
 </metadata>
 <defs>
  <style type="text/css">*{stroke-linejoin: round; stroke-linecap: butt}</style>
 </defs>
 <g id="figure_1">
  <g id="patch_1">
   <path d="M 0 592.56 
L 1236.96 592.56 
L 1236.96 0 
L 0 0 
L 0 592.56 
z
" style="fill: none"/>
  </g>
  <g id="axes_1">
   <g id="patch_2">
    <path d="M 223.409209 302.558449 
Q 229.041471 302.558449 233.555698 302.558449 
" clip-path="url(#pa1738dd476)" style="fill: none; stroke: #000000; stroke-opacity: 0.9; stroke-linecap: round"/>
    <path d="M 229.555698 300.558449 
L 233.555698 302.558449 
L 229.555698 304.558449 
z
" clip-path="url(#pa1738dd476)" style="fill-opacity: 0.9; stroke: #000000; stroke-opacity: 0.9; stroke-linecap: round"/>
   </g>
   <g id="patch_3">
    <path d="M 937.383235 365.342937 
Q 943.015497 365.342937 947.529724 365.342937 
" clip-path="url(#pa1738dd476)" style="fill: none; stroke: #000000; stroke-opacity: 0.9; stroke-linecap: round"/>
    <path d="M 943.529724 363.342937 
L 947.529724 365.342937 
L 943.529724 367.342937 
z
" clip-path="url(#pa1738dd476)" style="fill-opacity: 0.9; stroke: #000000; stroke-opacity: 0.9; stroke-linecap: round"/>
   </g>
   <g id="patch_4">
    <path d="M 899.972433 364.826088 
Q 691.500746 359.064507 484.146666 353.333814 
" clip-path="url(#pa1738dd476)" style="fill: none; stroke: #000000; stroke-opacity: 0.9; stroke-linecap: round"/>
    <path d="M 488.089886 355.443557 
L 484.146666 353.333814 
L 488.200393 351.445084 
z
" clip-path="url(#pa1738dd476)" style="fill-opacity: 0.9; stroke: #000000; stroke-opacity: 0.9; stroke-linecap: round"/>
   </g>
   <g id="patch_5">
    <path d="M 174.729162 302.558449 
Q 180.361423 302.558449 184.875651 302.558449 
" clip-path="url(#pa1738dd476)" style="fill: none; stroke: #000000; stroke-opacity: 0.9; stroke-linecap: round"/>
    <path d="M 180.875651 300.558449 
L 184.875651 302.558449 
L 180.875651 304.558449 
z
" clip-path="url(#pa1738dd476)" style="fill-opacity: 0.9; stroke: #000000; stroke-opacity: 0.9; stroke-linecap: round"/>
   </g>
   <g id="patch_6">
    <path d="M 580.396222 252.330858 
Q 586.028484 252.330858 590.542711 252.330858 
" clip-path="url(#pa1738dd476)" style="fill: none; stroke: #000000; stroke-opacity: 0.9; stroke-linecap: round"/>
    <path d="M 586.542711 250.330858 
L 590.542711 252.330858 
L 586.542711 254.330858 
z
" clip-path="url(#pa1738dd476)" style="fill-opacity: 0.9; stroke: #000000; stroke-opacity: 0.9; stroke-linecap: round"/>
   </g>
   <g id="patch_7">
    <path d="M 316.85426 291.109783 
Q 334.513108 277.444615 351.28775 264.463682 
" clip-path="url(#pa1738dd476)" style="fill: none; stroke: #000000; stroke-opacity: 0.9; stroke-linecap: round"/>
    <path d="M 346.900319 265.329965 
L 351.28775 264.463682 
L 349.348317 268.493397 
z
" clip-path="url(#pa1738dd476)" style="fill-opacity: 0.9; stroke: #000000; stroke-opacity: 0.9; stroke-linecap: round"/>
   </g>
   <g id="patch_8">
    <path d="M 316.85426 314.007114 
Q 334.513108 327.672283 351.28775 340.653215 
" clip-path="url(#pa1738dd476)" style="fill: none; stroke: #000000; stroke-opacity: 0.9; stroke-linecap: round"/>
    <path d="M 349.348317 336.623501 
L 351.28775 340.653215 
L 346.900319 339.786933 
z
" clip-path="url(#pa1738dd476)" style="fill-opacity: 0.9; stroke: #000000; stroke-opacity: 0.9; stroke-linecap: round"/>
   </g>
   <g id="patch_9">
    <path d="M 126.049115 302.558449 
Q 131.681376 302.558449 136.195604 302.558449 
" clip-path="url(#pa1738dd476)" style="fill: none; stroke: #000000; stroke-opacity: 0.9; stroke-linecap: round"/>
    <path d="M 132.195604 300.558449 
L 136.195604 302.558449 
L 132.195604 304.558449 
z
" clip-path="url(#pa1738dd476)" style="fill-opacity: 0.9; stroke: #000000; stroke-opacity: 0.9; stroke-linecap: round"/>
   </g>
   <g id="patch_10">
    <path d="M 272.089256 302.558449 
Q 277.721518 302.558449 282.235746 302.558449 
" clip-path="url(#pa1738dd476)" style="fill: none; stroke: #000000; stroke-opacity: 0.9; stroke-linecap: round"/>
    <path d="M 278.235746 300.558449 
L 282.235746 302.558449 
L 278.235746 304.558449 
z
" clip-path="url(#pa1738dd476)" style="fill-opacity: 0.9; stroke: #000000; stroke-opacity: 0.9; stroke-linecap: round"/>
   </g>
   <g id="patch_11">
    <path d="M 385.676033 252.330858 
Q 391.308295 252.330858 395.822522 252.330858 
" clip-path="url(#pa1738dd476)" style="fill: none; stroke: #000000; stroke-opacity: 0.9; stroke-linecap: round"/>
    <path d="M 391.822522 250.330858 
L 395.822522 252.330858 
L 391.822522 254.330858 
z
" clip-path="url(#pa1738dd476)" style="fill-opacity: 0.9; stroke: #000000; stroke-opacity: 0.9; stroke-linecap: round"/>
   </g>
   <g id="patch_12">
    <path d="M 434.35608 252.330858 
Q 439.988342 252.330858 444.50257 252.330858 
" clip-path="url(#pa1738dd476)" style="fill: none; stroke: #000000; stroke-opacity: 0.9; stroke-linecap: round"/>
    <path d="M 440.50257 250.330858 
L 444.50257 252.330858 
L 440.50257 254.330858 
z
" clip-path="url(#pa1738dd476)" style="fill-opacity: 0.9; stroke: #000000; stroke-opacity: 0.9; stroke-linecap: round"/>
   </g>
   <g id="patch_13">
    <path d="M 483.036128 252.330858 
Q 488.668389 252.330858 493.182617 252.330858 
" clip-path="url(#pa1738dd476)" style="fill: none; stroke: #000000; stroke-opacity: 0.9; stroke-linecap: round"/>
    <path d="M 489.182617 250.330858 
L 493.182617 252.330858 
L 489.182617 254.330858 
z
" clip-path="url(#pa1738dd476)" style="fill-opacity: 0.9; stroke: #000000; stroke-opacity: 0.9; stroke-linecap: round"/>
   </g>
   <g id="patch_14">
    <path d="M 531.716175 252.330858 
Q 537.348436 252.330858 541.862664 252.330858 
" clip-path="url(#pa1738dd476)" style="fill: none; stroke: #000000; stroke-opacity: 0.9; stroke-linecap: round"/>
    <path d="M 537.862664 250.330858 
L 541.862664 252.330858 
L 537.862664 254.330858 
z
" clip-path="url(#pa1738dd476)" style="fill-opacity: 0.9; stroke: #000000; stroke-opacity: 0.9; stroke-linecap: round"/>
   </g>
   <g id="patch_15">
    <path d="M 721.658807 242.428142 
Q 521.118973 271.166338 321.685867 299.745936 
" clip-path="url(#pa1738dd476)" style="fill: none; stroke: #000000; stroke-opacity: 0.9; stroke-linecap: round"/>
    <path d="M 325.929127 301.158291 
L 321.685867 299.745936 
L 325.361707 297.198741 
z
" clip-path="url(#pa1738dd476)" style="fill-opacity: 0.9; stroke: #000000; stroke-opacity: 0.9; stroke-linecap: round"/>
   </g>
   <g id="patch_16">
    <path d="M 690.067955 278.552886 
Q 707.726804 264.887717 724.501446 251.906785 
" clip-path="url(#pa1738dd476)" style="fill: none; stroke: #000000; stroke-opacity: 0.9; stroke-linecap: round"/>
    <path d="M 720.114014 252.773067 
L 724.501446 251.906785 
L 722.562013 255.936499 
z
" clip-path="url(#pa1738dd476)" style="fill-opacity: 0.9; stroke: #000000; stroke-opacity: 0.9; stroke-linecap: round"/>
   </g>
   <g id="patch_17">
    <path d="M 690.067955 301.450217 
Q 707.726804 315.115385 724.501446 328.096318 
" clip-path="url(#pa1738dd476)" style="fill: none; stroke: #000000; stroke-opacity: 0.9; stroke-linecap: round"/>
    <path d="M 722.562013 324.066603 
L 724.501446 328.096318 
L 720.114014 327.230035 
z
" clip-path="url(#pa1738dd476)" style="fill-opacity: 0.9; stroke: #000000; stroke-opacity: 0.9; stroke-linecap: round"/>
   </g>
   <g id="patch_18">
    <path d="M 625.161226 240.882193 
Q 642.820074 227.217024 659.594716 214.236092 
" clip-path="url(#pa1738dd476)" style="fill: none; stroke: #000000; stroke-opacity: 0.9; stroke-linecap: round"/>
    <path d="M 655.207285 215.102374 
L 659.594716 214.236092 
L 657.655283 218.265806 
z
" clip-path="url(#pa1738dd476)" style="fill-opacity: 0.9; stroke: #000000; stroke-opacity: 0.9; stroke-linecap: round"/>
   </g>
   <g id="patch_19">
    <path d="M 626.549764 261.72324 
Q 642.821206 271.166891 658.125675 280.049328 
" clip-path="url(#pa1738dd476)" style="fill: none; stroke: #000000; stroke-opacity: 0.9; stroke-linecap: round"/>
    <path d="M 655.670054 276.311691 
L 658.125675 280.049328 
L 653.662193 279.771243 
z
" clip-path="url(#pa1738dd476)" style="fill-opacity: 0.9; stroke: #000000; stroke-opacity: 0.9; stroke-linecap: round"/>
   </g>
   <g id="patch_20">
    <path d="M 757.630933 333.47705 
Q 772.636143 327.671215 786.598649 322.268824 
" clip-path="url(#pa1738dd476)" style="fill: none; stroke: #000000; stroke-opacity: 0.9; stroke-linecap: round"/>
    <path d="M 782.146453 321.846985 
L 786.598649 322.268824 
L 783.58986 325.577477 
z
" clip-path="url(#pa1738dd476)" style="fill-opacity: 0.9; stroke: #000000; stroke-opacity: 0.9; stroke-linecap: round"/>
   </g>
   <g id="patch_21">
    <path d="M 752.391727 354.403936 
Q 772.633227 377.899538 792.144995 400.548092 
" clip-path="url(#pa1738dd476)" style="fill: none; stroke: #000000; stroke-opacity: 0.9; stroke-linecap: round"/>
    <path d="M 791.049468 396.212216 
L 792.144995 400.548092 
L 788.018978 398.822989 
z
" clip-path="url(#pa1738dd476)" style="fill-opacity: 0.9; stroke: #000000; stroke-opacity: 0.9; stroke-linecap: round"/>
   </g>
   <g id="patch_22">
    <path d="M 823.796458 315.115346 
Q 829.42872 315.115346 833.942947 315.115346 
" clip-path="url(#pa1738dd476)" style="fill: none; stroke: #000000; stroke-opacity: 0.9; stroke-linecap: round"/>
    <path d="M 829.942947 313.115346 
L 833.942947 315.115346 
L 829.942947 317.115346 
z
" clip-path="url(#pa1738dd476)" style="fill-opacity: 0.9; stroke: #000000; stroke-opacity: 0.9; stroke-linecap: round"/>
   </g>
   <g id="patch_23">
    <path d="M 872.476505 315.115346 
Q 878.108767 315.115346 882.622995 315.115346 
" clip-path="url(#pa1738dd476)" style="fill: none; stroke: #000000; stroke-opacity: 0.9; stroke-linecap: round"/>
    <path d="M 878.622995 313.115346 
L 882.622995 315.115346 
L 878.622995 317.115346 
z
" clip-path="url(#pa1738dd476)" style="fill-opacity: 0.9; stroke: #000000; stroke-opacity: 0.9; stroke-linecap: round"/>
   </g>
   <g id="patch_24">
    <path d="M 823.796458 415.570528 
Q 829.42872 415.570528 833.942947 415.570528 
" clip-path="url(#pa1738dd476)" style="fill: none; stroke: #000000; stroke-opacity: 0.9; stroke-linecap: round"/>
    <path d="M 829.942947 413.570528 
L 833.942947 415.570528 
L 829.942947 417.570528 
z
" clip-path="url(#pa1738dd476)" style="fill-opacity: 0.9; stroke: #000000; stroke-opacity: 0.9; stroke-linecap: round"/>
   </g>
   <g id="patch_25">
    <path d="M 868.561462 404.121862 
Q 886.22031 390.456693 902.994952 377.475761 
" clip-path="url(#pa1738dd476)" style="fill: none; stroke: #000000; stroke-opacity: 0.9; stroke-linecap: round"/>
    <path d="M 898.607521 378.342044 
L 902.994952 377.475761 
L 901.055519 381.505476 
z
" clip-path="url(#pa1738dd476)" style="fill-opacity: 0.9; stroke: #000000; stroke-opacity: 0.9; stroke-linecap: round"/>
   </g>
   <g id="patch_26">
    <path d="M 868.561462 427.019193 
Q 886.22031 440.684362 902.994952 453.665294 
" clip-path="url(#pa1738dd476)" style="fill: none; stroke: #000000; stroke-opacity: 0.9; stroke-linecap: round"/>
    <path d="M 901.055519 449.63558 
L 902.994952 453.665294 
L 898.607521 452.799012 
z
" clip-path="url(#pa1738dd476)" style="fill-opacity: 0.9; stroke: #000000; stroke-opacity: 0.9; stroke-linecap: round"/>
   </g>
   <g id="patch_27">
    <path d="M 936.124439 459.046027 
Q 951.129649 453.240191 965.092156 447.837801 
" clip-path="url(#pa1738dd476)" style="fill: none; stroke: #000000; stroke-opacity: 0.9; stroke-linecap: round"/>
    <path d="M 960.639959 447.415961 
L 965.092156 447.837801 
L 962.083366 451.146454 
z
" clip-path="url(#pa1738dd476)" style="fill-opacity: 0.9; stroke: #000000; stroke-opacity: 0.9; stroke-linecap: round"/>
   </g>
   <g id="patch_28">
    <path d="M 930.885233 479.972912 
Q 951.126734 503.468514 970.638501 526.117069 
" clip-path="url(#pa1738dd476)" style="fill: none; stroke: #000000; stroke-opacity: 0.9; stroke-linecap: round"/>
    <path d="M 969.542974 521.781193 
L 970.638501 526.117069 
L 966.512484 524.391965 
z
" clip-path="url(#pa1738dd476)" style="fill-opacity: 0.9; stroke: #000000; stroke-opacity: 0.9; stroke-linecap: round"/>
   </g>
   <g id="patch_29">
    <path d="M 1002.289965 440.684323 
Q 1007.922226 440.684323 1012.436454 440.684323 
" clip-path="url(#pa1738dd476)" style="fill: none; stroke: #000000; stroke-opacity: 0.9; stroke-linecap: round"/>
    <path d="M 1008.436454 438.684323 
L 1012.436454 440.684323 
L 1008.436454 442.684323 
z
" clip-path="url(#pa1738dd476)" style="fill-opacity: 0.9; stroke: #000000; stroke-opacity: 0.9; stroke-linecap: round"/>
   </g>
   <g id="patch_30">
    <path d="M 1050.970012 440.684323 
Q 1056.602274 440.684323 1061.116501 440.684323 
" clip-path="url(#pa1738dd476)" style="fill: none; stroke: #000000; stroke-opacity: 0.9; stroke-linecap: round"/>
    <path d="M 1057.116501 438.684323 
L 1061.116501 440.684323 
L 1057.116501 442.684323 
z
" clip-path="url(#pa1738dd476)" style="fill-opacity: 0.9; stroke: #000000; stroke-opacity: 0.9; stroke-linecap: round"/>
   </g>
   <g id="patch_31">
    <path d="M 948.728059 363.585219 
Q 634.706213 333.950649 321.797454 304.421122 
" clip-path="url(#pa1738dd476)" style="fill: none; stroke: #000000; stroke-opacity: 0.9; stroke-linecap: round"/>
    <path d="M 325.591853 306.78809 
L 321.797454 304.421122 
L 325.967668 302.805783 
z
" clip-path="url(#pa1738dd476)" style="fill-opacity: 0.9; stroke: #000000; stroke-opacity: 0.9; stroke-linecap: round"/>
   </g>
   <g id="patch_32">
    <path d="M 1112.6525 432.805989 
Q 1048.487867 403.013994 985.337293 373.692832 
" clip-path="url(#pa1738dd476)" style="fill: none; stroke: #000000; stroke-opacity: 0.9; stroke-linecap: round"/>
    <path d="M 988.123049 377.191341 
L 985.337293 373.692832 
L 989.807554 373.563332 
z
" clip-path="url(#pa1738dd476)" style="fill-opacity: 0.9; stroke: #000000; stroke-opacity: 0.9; stroke-linecap: round"/>
   </g>
   <g id="patch_33">
    <path d="M 162.780504 68.860206 
Q 204.699335 176.988791 246.214037 284.074937 
" clip-path="url(#pa1738dd476)" style="fill: none; stroke: #000000; stroke-opacity: 0.9; stroke-linecap: round"/>
    <path d="M 246.632955 279.622465 
L 246.214037 284.074937 
L 242.90341 281.068319 
z
" clip-path="url(#pa1738dd476)" style="fill-opacity: 0.9; stroke: #000000; stroke-opacity: 0.9; stroke-linecap: round"/>
   </g>
   <g id="patch_34">
    <path d="M 434.35608 352.786039 
Q 439.988342 352.786039 444.50257 352.786039 
" clip-path="url(#pa1738dd476)" style="fill: none; stroke: #000000; stroke-opacity: 0.9; stroke-linecap: round"/>
    <path d="M 440.50257 350.786039 
L 444.50257 352.786039 
L 440.50257 354.786039 
z
" clip-path="url(#pa1738dd476)" style="fill-opacity: 0.9; stroke: #000000; stroke-opacity: 0.9; stroke-linecap: round"/>
   </g>
   <g id="patch_35">
    <path d="M 1099.650059 440.684323 
Q 1105.282321 440.684323 1109.796548 440.684323 
" clip-path="url(#pa1738dd476)" style="fill: none; stroke: #000000; stroke-opacity: 0.9; stroke-linecap: round"/>
    <path d="M 1105.796548 438.684323 
L 1109.796548 440.684323 
L 1105.796548 442.684323 
z
" clip-path="url(#pa1738dd476)" style="fill-opacity: 0.9; stroke: #000000; stroke-opacity: 0.9; stroke-linecap: round"/>
   </g>
   <g id="patch_36">
    <path d="M 126.049115 51.420496 
Q 131.681376 51.420496 136.195604 51.420496 
" clip-path="url(#pa1738dd476)" style="fill: none; stroke: #000000; stroke-opacity: 0.9; stroke-linecap: round"/>
    <path d="M 132.195604 49.420496 
L 136.195604 51.420496 
L 132.195604 53.420496 
z
" clip-path="url(#pa1738dd476)" style="fill-opacity: 0.9; stroke: #000000; stroke-opacity: 0.9; stroke-linecap: round"/>
   </g>
   <g id="patch_37">
    <path d="M 385.676033 352.786039 
Q 391.308295 352.786039 395.822522 352.786039 
" clip-path="url(#pa1738dd476)" style="fill: none; stroke: #000000; stroke-opacity: 0.9; stroke-linecap: round"/>
    <path d="M 391.822522 350.786039 
L 395.822522 352.786039 
L 391.822522 354.786039 
z
" clip-path="url(#pa1738dd476)" style="fill-opacity: 0.9; stroke: #000000; stroke-opacity: 0.9; stroke-linecap: round"/>
   </g>
   <g id="PathCollection_1">
    <defs>
     <path id="C0_0_025866dfdb" d="M 0 18.708287 
C 4.961496 18.708287 9.720449 16.737064 13.228757 13.228757 
C 16.737064 9.720449 18.708287 4.961496 18.708287 -0 
C 18.708287 -4.961496 16.737064 -9.720449 13.228757 -13.228757 
C 9.720449 -16.737064 4.961496 -18.708287 0 -18.708287 
C -4.961496 -18.708287 -9.720449 -16.737064 -13.228757 -13.228757 
C -16.737064 -9.720449 -18.708287 -4.961496 -18.708287 0 
C -18.708287 4.961496 -16.737064 9.720449 -13.228757 13.228757 
C -9.720449 16.737064 -4.961496 18.708287 0 18.708287 
z
"/>
    </defs>
    <g clip-path="url(#pa1738dd476)">
     <use xlink:href="#C0_0_025866dfdb" x="204.699599" y="302.558449" style="fill: #008000; fill-opacity: 0.9; stroke: #008000; stroke-opacity: 0.9"/>
    </g>
    <g clip-path="url(#pa1738dd476)">
     <use xlink:href="#C0_0_025866dfdb" x="918.673625" y="365.342937" style="fill: #008000; fill-opacity: 0.9; stroke: #008000; stroke-opacity: 0.9"/>
    </g>
    <g clip-path="url(#pa1738dd476)">
     <use xlink:href="#C0_0_025866dfdb" x="156.019551" y="302.558449" style="fill: #008000; fill-opacity: 0.9; stroke: #008000; stroke-opacity: 0.9"/>
    </g>
    <g clip-path="url(#pa1738dd476)">
     <use xlink:href="#C0_0_025866dfdb" x="561.686612" y="252.330858" style="fill: #008000; fill-opacity: 0.9; stroke: #008000; stroke-opacity: 0.9"/>
    </g>
    <g clip-path="url(#pa1738dd476)">
     <use xlink:href="#C0_0_025866dfdb" x="302.059693" y="302.558449" style="fill: #008000; fill-opacity: 0.9; stroke: #008000; stroke-opacity: 0.9"/>
    </g>
    <g clip-path="url(#pa1738dd476)">
     <use xlink:href="#C0_0_025866dfdb" x="107.339504" y="302.558449" style="fill-opacity: 0.9; stroke: #000000; stroke-opacity: 0.9"/>
    </g>
    <g clip-path="url(#pa1738dd476)">
     <use xlink:href="#C0_0_025866dfdb" x="253.379646" y="302.558449" style="fill: #8a2be2; fill-opacity: 0.9; stroke: #8a2be2; stroke-opacity: 0.9"/>
    </g>
    <g clip-path="url(#pa1738dd476)">
     <use xlink:href="#C0_0_025866dfdb" x="366.966423" y="252.330858" style="fill: #e377c2; fill-opacity: 0.9; stroke: #e377c2; stroke-opacity: 0.9"/>
    </g>
    <g clip-path="url(#pa1738dd476)">
     <use xlink:href="#C0_0_025866dfdb" x="415.64647" y="252.330858" style="fill: #e377c2; fill-opacity: 0.9; stroke: #e377c2; stroke-opacity: 0.9"/>
    </g>
    <g clip-path="url(#pa1738dd476)">
     <use xlink:href="#C0_0_025866dfdb" x="464.326517" y="252.330858" style="fill: #ff0000; fill-opacity: 0.9; stroke: #ff0000; stroke-opacity: 0.9"/>
    </g>
    <g clip-path="url(#pa1738dd476)">
     <use xlink:href="#C0_0_025866dfdb" x="513.006564" y="252.330858" style="fill: #e377c2; fill-opacity: 0.9; stroke: #e377c2; stroke-opacity: 0.9"/>
    </g>
    <g clip-path="url(#pa1738dd476)">
     <use xlink:href="#C0_0_025866dfdb" x="740.180118" y="239.773961" style="fill: #ff0000; fill-opacity: 0.9; stroke: #ff0000; stroke-opacity: 0.9"/>
    </g>
    <g clip-path="url(#pa1738dd476)">
     <use xlink:href="#C0_0_025866dfdb" x="675.273388" y="290.001551" style="fill: #cf1717; fill-opacity: 0.9; stroke: #cf1717; stroke-opacity: 0.9"/>
    </g>
    <g clip-path="url(#pa1738dd476)">
     <use xlink:href="#C0_0_025866dfdb" x="610.366659" y="252.330858" style="fill: #cf1717; fill-opacity: 0.9; stroke: #cf1717; stroke-opacity: 0.9"/>
    </g>
    <g clip-path="url(#pa1738dd476)">
     <use xlink:href="#C0_0_025866dfdb" x="675.273388" y="202.103268" style="fill: #e377c2; fill-opacity: 0.9; stroke: #e377c2; stroke-opacity: 0.9"/>
    </g>
    <g clip-path="url(#pa1738dd476)">
     <use xlink:href="#C0_0_025866dfdb" x="740.180118" y="340.229142" style="fill: #cf1717; fill-opacity: 0.9; stroke: #cf1717; stroke-opacity: 0.9"/>
    </g>
    <g clip-path="url(#pa1738dd476)">
     <use xlink:href="#C0_0_025866dfdb" x="805.086848" y="315.115346" style="fill: #e377c2; fill-opacity: 0.9; stroke: #e377c2; stroke-opacity: 0.9"/>
    </g>
    <g clip-path="url(#pa1738dd476)">
     <use xlink:href="#C0_0_025866dfdb" x="853.766895" y="315.115346" style="fill: #ff0000; fill-opacity: 0.9; stroke: #ff0000; stroke-opacity: 0.9"/>
    </g>
    <g clip-path="url(#pa1738dd476)">
     <use xlink:href="#C0_0_025866dfdb" x="805.086848" y="415.570528" style="fill: #e377c2; fill-opacity: 0.9; stroke: #e377c2; stroke-opacity: 0.9"/>
    </g>
    <g clip-path="url(#pa1738dd476)">
     <use xlink:href="#C0_0_025866dfdb" x="853.766895" y="415.570528" style="fill: #cf1717; fill-opacity: 0.9; stroke: #cf1717; stroke-opacity: 0.9"/>
    </g>
    <g clip-path="url(#pa1738dd476)">
     <use xlink:href="#C0_0_025866dfdb" x="918.673625" y="465.798118" style="fill: #cf1717; fill-opacity: 0.9; stroke: #cf1717; stroke-opacity: 0.9"/>
    </g>
    <g clip-path="url(#pa1738dd476)">
     <use xlink:href="#C0_0_025866dfdb" x="983.580354" y="440.684323" style="fill: #e377c2; fill-opacity: 0.9; stroke: #e377c2; stroke-opacity: 0.9"/>
    </g>
    <g clip-path="url(#pa1738dd476)">
     <use xlink:href="#C0_0_025866dfdb" x="1032.260401" y="440.684323" style="fill: #ff0000; fill-opacity: 0.9; stroke: #ff0000; stroke-opacity: 0.9"/>
    </g>
    <g clip-path="url(#pa1738dd476)">
     <use xlink:href="#C0_0_025866dfdb" x="983.580354" y="541.139504" style="fill: #222222; fill-opacity: 0.9; stroke: #222222; stroke-opacity: 0.9"/>
    </g>
    <g clip-path="url(#pa1738dd476)">
     <use xlink:href="#C0_0_025866dfdb" x="967.353672" y="365.342937" style="fill: #8a2be2; fill-opacity: 0.9; stroke: #8a2be2; stroke-opacity: 0.9"/>
    </g>
    <g clip-path="url(#pa1738dd476)">
     <use xlink:href="#C0_0_025866dfdb" x="464.326517" y="352.786039" style="fill: #8a2be2; fill-opacity: 0.9; stroke: #8a2be2; stroke-opacity: 0.9"/>
    </g>
    <g clip-path="url(#pa1738dd476)">
     <use xlink:href="#C0_0_025866dfdb" x="1129.620496" y="440.684323" style="fill: #0000ff; fill-opacity: 0.9; stroke: #0000ff; stroke-opacity: 0.9"/>
    </g>
    <g clip-path="url(#pa1738dd476)">
     <use xlink:href="#C0_0_025866dfdb" x="156.019551" y="51.420496" style="fill: #0000ff; fill-opacity: 0.9; stroke: #0000ff; stroke-opacity: 0.9"/>
    </g>
    <g clip-path="url(#pa1738dd476)">
     <use xlink:href="#C0_0_025866dfdb" x="415.64647" y="352.786039" style="fill: #0000ff; fill-opacity: 0.9; stroke: #0000ff; stroke-opacity: 0.9"/>
    </g>
    <g clip-path="url(#pa1738dd476)">
     <use xlink:href="#C0_0_025866dfdb" x="902.446942" y="315.115346" style="fill: #0000ff; fill-opacity: 0.9; stroke: #0000ff; stroke-opacity: 0.9"/>
    </g>
    <g clip-path="url(#pa1738dd476)">
     <use xlink:href="#C0_0_025866dfdb" x="1080.940449" y="440.684323" style="fill: #0000ff; fill-opacity: 0.9; stroke: #0000ff; stroke-opacity: 0.9"/>
    </g>
    <g clip-path="url(#pa1738dd476)">
     <use xlink:href="#C0_0_025866dfdb" x="107.339504" y="51.420496" style="fill: #0000ff; fill-opacity: 0.9; stroke: #0000ff; stroke-opacity: 0.9"/>
    </g>
    <g clip-path="url(#pa1738dd476)">
     <use xlink:href="#C0_0_025866dfdb" x="366.966423" y="352.786039" style="fill: #0000ff; fill-opacity: 0.9; stroke: #0000ff; stroke-opacity: 0.9"/>
    </g>
   </g>
   <g id="text_1">
    <g clip-path="url(#pa1738dd476)">
     <!-- H1007 -->
     <g style="fill: #ffffff" transform="translate(193.159989 305.217902) scale(0.07 -0.07)">
      <defs>
       <path id="DejaVuSans-48" d="M 628 4666 
L 1259 4666 
L 1259 2753 
L 3553 2753 
L 3553 4666 
L 4184 4666 
L 4184 0 
L 3553 0 
L 3553 2222 
L 1259 2222 
L 1259 0 
L 628 0 
L 628 4666 
z
" transform="scale(0.015625)"/>
       <path id="DejaVuSans-31" d="M 794 531 
L 1825 531 
L 1825 4091 
L 703 3866 
L 703 4441 
L 1819 4666 
L 2450 4666 
L 2450 531 
L 3481 531 
L 3481 0 
L 794 0 
L 794 531 
z
" transform="scale(0.015625)"/>
       <path id="DejaVuSans-30" d="M 2034 4250 
Q 1547 4250 1301 3770 
Q 1056 3291 1056 2328 
Q 1056 1369 1301 889 
Q 1547 409 2034 409 
Q 2525 409 2770 889 
Q 3016 1369 3016 2328 
Q 3016 3291 2770 3770 
Q 2525 4250 2034 4250 
z
M 2034 4750 
Q 2819 4750 3233 4129 
Q 3647 3509 3647 2328 
Q 3647 1150 3233 529 
Q 2819 -91 2034 -91 
Q 1250 -91 836 529 
Q 422 1150 422 2328 
Q 422 3509 836 4129 
Q 1250 4750 2034 4750 
z
" transform="scale(0.015625)"/>
       <path id="DejaVuSans-37" d="M 525 4666 
L 3525 4666 
L 3525 4397 
L 1831 0 
L 1172 0 
L 2766 4134 
L 525 4134 
L 525 4666 
z
" transform="scale(0.015625)"/>
      </defs>
      <use xlink:href="#DejaVuSans-48"/>
      <use xlink:href="#DejaVuSans-31" transform="translate(75.195312 0)"/>
      <use xlink:href="#DejaVuSans-30" transform="translate(138.818359 0)"/>
      <use xlink:href="#DejaVuSans-30" transform="translate(202.441406 0)"/>
      <use xlink:href="#DejaVuSans-37" transform="translate(266.064453 0)"/>
     </g>
    </g>
   </g>
   <g id="text_2">
    <g clip-path="url(#pa1738dd476)">
     <!-- H1008 -->
     <g style="fill: #ffffff" transform="translate(907.134015 368.00239) scale(0.07 -0.07)">
      <defs>
       <path id="DejaVuSans-38" d="M 2034 2216 
Q 1584 2216 1326 1975 
Q 1069 1734 1069 1313 
Q 1069 891 1326 650 
Q 1584 409 2034 409 
Q 2484 409 2743 651 
Q 3003 894 3003 1313 
Q 3003 1734 2745 1975 
Q 2488 2216 2034 2216 
z
M 1403 2484 
Q 997 2584 770 2862 
Q 544 3141 544 3541 
Q 544 4100 942 4425 
Q 1341 4750 2034 4750 
Q 2731 4750 3128 4425 
Q 3525 4100 3525 3541 
Q 3525 3141 3298 2862 
Q 3072 2584 2669 2484 
Q 3125 2378 3379 2068 
Q 3634 1759 3634 1313 
Q 3634 634 3220 271 
Q 2806 -91 2034 -91 
Q 1263 -91 848 271 
Q 434 634 434 1313 
Q 434 1759 690 2068 
Q 947 2378 1403 2484 
z
M 1172 3481 
Q 1172 3119 1398 2916 
Q 1625 2713 2034 2713 
Q 2441 2713 2670 2916 
Q 2900 3119 2900 3481 
Q 2900 3844 2670 4047 
Q 2441 4250 2034 4250 
Q 1625 4250 1398 4047 
Q 1172 3844 1172 3481 
z
" transform="scale(0.015625)"/>
      </defs>
      <use xlink:href="#DejaVuSans-48"/>
      <use xlink:href="#DejaVuSans-31" transform="translate(75.195312 0)"/>
      <use xlink:href="#DejaVuSans-30" transform="translate(138.818359 0)"/>
      <use xlink:href="#DejaVuSans-30" transform="translate(202.441406 0)"/>
      <use xlink:href="#DejaVuSans-38" transform="translate(266.064453 0)"/>
     </g>
    </g>
   </g>
   <g id="text_3">
    <g clip-path="url(#pa1738dd476)">
     <!-- P4711 -->
     <g style="fill: #ffffff" transform="translate(145.001661 305.217902) scale(0.07 -0.07)">
      <defs>
       <path id="DejaVuSans-50" d="M 1259 4147 
L 1259 2394 
L 2053 2394 
Q 2494 2394 2734 2622 
Q 2975 2850 2975 3272 
Q 2975 3691 2734 3919 
Q 2494 4147 2053 4147 
L 1259 4147 
z
M 628 4666 
L 2053 4666 
Q 2838 4666 3239 4311 
Q 3641 3956 3641 3272 
Q 3641 2581 3239 2228 
Q 2838 1875 2053 1875 
L 1259 1875 
L 1259 0 
L 628 0 
L 628 4666 
z
" transform="scale(0.015625)"/>
       <path id="DejaVuSans-34" d="M 2419 4116 
L 825 1625 
L 2419 1625 
L 2419 4116 
z
M 2253 4666 
L 3047 4666 
L 3047 1625 
L 3713 1625 
L 3713 1100 
L 3047 1100 
L 3047 0 
L 2419 0 
L 2419 1100 
L 313 1100 
L 313 1709 
L 2253 4666 
z
" transform="scale(0.015625)"/>
      </defs>
      <use xlink:href="#DejaVuSans-50"/>
      <use xlink:href="#DejaVuSans-34" transform="translate(60.302734 0)"/>
      <use xlink:href="#DejaVuSans-37" transform="translate(123.925781 0)"/>
      <use xlink:href="#DejaVuSans-31" transform="translate(187.548828 0)"/>
      <use xlink:href="#DejaVuSans-31" transform="translate(251.171875 0)"/>
     </g>
    </g>
   </g>
   <g id="text_4">
    <g clip-path="url(#pa1738dd476)">
     <!-- P4712 -->
     <g style="fill: #ffffff" transform="translate(550.668721 254.990311) scale(0.07 -0.07)">
      <defs>
       <path id="DejaVuSans-32" d="M 1228 531 
L 3431 531 
L 3431 0 
L 469 0 
L 469 531 
Q 828 903 1448 1529 
Q 2069 2156 2228 2338 
Q 2531 2678 2651 2914 
Q 2772 3150 2772 3378 
Q 2772 3750 2511 3984 
Q 2250 4219 1831 4219 
Q 1534 4219 1204 4116 
Q 875 4013 500 3803 
L 500 4441 
Q 881 4594 1212 4672 
Q 1544 4750 1819 4750 
Q 2544 4750 2975 4387 
Q 3406 4025 3406 3419 
Q 3406 3131 3298 2873 
Q 3191 2616 2906 2266 
Q 2828 2175 2409 1742 
Q 1991 1309 1228 531 
z
" transform="scale(0.015625)"/>
      </defs>
      <use xlink:href="#DejaVuSans-50"/>
      <use xlink:href="#DejaVuSans-34" transform="translate(60.302734 0)"/>
      <use xlink:href="#DejaVuSans-37" transform="translate(123.925781 0)"/>
      <use xlink:href="#DejaVuSans-31" transform="translate(187.548828 0)"/>
      <use xlink:href="#DejaVuSans-32" transform="translate(251.171875 0)"/>
     </g>
    </g>
   </g>
   <g id="text_5">
    <g clip-path="url(#pa1738dd476)">
     <!-- T4750 -->
     <g style="fill: #ffffff" transform="translate(291.014459 305.217902) scale(0.07 -0.07)">
      <defs>
       <path id="DejaVuSans-54" d="M -19 4666 
L 3928 4666 
L 3928 4134 
L 2272 4134 
L 2272 0 
L 1638 0 
L 1638 4134 
L -19 4134 
L -19 4666 
z
" transform="scale(0.015625)"/>
       <path id="DejaVuSans-35" d="M 691 4666 
L 3169 4666 
L 3169 4134 
L 1269 4134 
L 1269 2991 
Q 1406 3038 1543 3061 
Q 1681 3084 1819 3084 
Q 2600 3084 3056 2656 
Q 3513 2228 3513 1497 
Q 3513 744 3044 326 
Q 2575 -91 1722 -91 
Q 1428 -91 1123 -41 
Q 819 9 494 109 
L 494 744 
Q 775 591 1075 516 
Q 1375 441 1709 441 
Q 2250 441 2565 725 
Q 2881 1009 2881 1497 
Q 2881 1984 2565 2268 
Q 2250 2553 1709 2553 
Q 1456 2553 1204 2497 
Q 953 2441 691 2322 
L 691 4666 
z
" transform="scale(0.015625)"/>
      </defs>
      <use xlink:href="#DejaVuSans-54"/>
      <use xlink:href="#DejaVuSans-34" transform="translate(61.083984 0)"/>
      <use xlink:href="#DejaVuSans-37" transform="translate(124.707031 0)"/>
      <use xlink:href="#DejaVuSans-35" transform="translate(188.330078 0)"/>
      <use xlink:href="#DejaVuSans-30" transform="translate(251.953125 0)"/>
     </g>
    </g>
   </g>
   <g id="text_6">
    <g clip-path="url(#pa1738dd476)">
     <!-- FlowInPi -->
     <g style="fill: #ffffff" transform="translate(93.095598 293.992089) scale(0.07 -0.07)">
      <defs>
       <path id="DejaVuSans-46" d="M 628 4666 
L 3309 4666 
L 3309 4134 
L 1259 4134 
L 1259 2759 
L 3109 2759 
L 3109 2228 
L 1259 2228 
L 1259 0 
L 628 0 
L 628 4666 
z
" transform="scale(0.015625)"/>
       <path id="DejaVuSans-6c" d="M 603 4863 
L 1178 4863 
L 1178 0 
L 603 0 
L 603 4863 
z
" transform="scale(0.015625)"/>
       <path id="DejaVuSans-6f" d="M 1959 3097 
Q 1497 3097 1228 2736 
Q 959 2375 959 1747 
Q 959 1119 1226 758 
Q 1494 397 1959 397 
Q 2419 397 2687 759 
Q 2956 1122 2956 1747 
Q 2956 2369 2687 2733 
Q 2419 3097 1959 3097 
z
M 1959 3584 
Q 2709 3584 3137 3096 
Q 3566 2609 3566 1747 
Q 3566 888 3137 398 
Q 2709 -91 1959 -91 
Q 1206 -91 779 398 
Q 353 888 353 1747 
Q 353 2609 779 3096 
Q 1206 3584 1959 3584 
z
" transform="scale(0.015625)"/>
       <path id="DejaVuSans-77" d="M 269 3500 
L 844 3500 
L 1563 769 
L 2278 3500 
L 2956 3500 
L 3675 769 
L 4391 3500 
L 4966 3500 
L 4050 0 
L 3372 0 
L 2619 2869 
L 1863 0 
L 1184 0 
L 269 3500 
z
" transform="scale(0.015625)"/>
       <path id="DejaVuSans-49" d="M 628 4666 
L 1259 4666 
L 1259 0 
L 628 0 
L 628 4666 
z
" transform="scale(0.015625)"/>
       <path id="DejaVuSans-6e" d="M 3513 2113 
L 3513 0 
L 2938 0 
L 2938 2094 
Q 2938 2591 2744 2837 
Q 2550 3084 2163 3084 
Q 1697 3084 1428 2787 
Q 1159 2491 1159 1978 
L 1159 0 
L 581 0 
L 581 3500 
L 1159 3500 
L 1159 2956 
Q 1366 3272 1645 3428 
Q 1925 3584 2291 3584 
Q 2894 3584 3203 3211 
Q 3513 2838 3513 2113 
z
" transform="scale(0.015625)"/>
       <path id="DejaVuSans-69" d="M 603 3500 
L 1178 3500 
L 1178 0 
L 603 0 
L 603 3500 
z
M 603 4863 
L 1178 4863 
L 1178 4134 
L 603 4134 
L 603 4863 
z
" transform="scale(0.015625)"/>
      </defs>
      <use xlink:href="#DejaVuSans-46"/>
      <use xlink:href="#DejaVuSans-6c" transform="translate(57.519531 0)"/>
      <use xlink:href="#DejaVuSans-6f" transform="translate(85.302734 0)"/>
      <use xlink:href="#DejaVuSans-77" transform="translate(146.484375 0)"/>
      <use xlink:href="#DejaVuSans-49" transform="translate(228.271484 0)"/>
      <use xlink:href="#DejaVuSans-6e" transform="translate(257.763672 0)"/>
      <use xlink:href="#DejaVuSans-50" transform="translate(321.142578 0)"/>
      <use xlink:href="#DejaVuSans-69" transform="translate(379.195312 0)"/>
     </g>
    </g>
    <g clip-path="url(#pa1738dd476)">
     <!-- peOffPag -->
     <g style="fill: #ffffff" transform="translate(91.424895 301.830558) scale(0.07 -0.07)">
      <defs>
       <path id="DejaVuSans-70" d="M 1159 525 
L 1159 -1331 
L 581 -1331 
L 581 3500 
L 1159 3500 
L 1159 2969 
Q 1341 3281 1617 3432 
Q 1894 3584 2278 3584 
Q 2916 3584 3314 3078 
Q 3713 2572 3713 1747 
Q 3713 922 3314 415 
Q 2916 -91 2278 -91 
Q 1894 -91 1617 61 
Q 1341 213 1159 525 
z
M 3116 1747 
Q 3116 2381 2855 2742 
Q 2594 3103 2138 3103 
Q 1681 3103 1420 2742 
Q 1159 2381 1159 1747 
Q 1159 1113 1420 752 
Q 1681 391 2138 391 
Q 2594 391 2855 752 
Q 3116 1113 3116 1747 
z
" transform="scale(0.015625)"/>
       <path id="DejaVuSans-65" d="M 3597 1894 
L 3597 1613 
L 953 1613 
Q 991 1019 1311 708 
Q 1631 397 2203 397 
Q 2534 397 2845 478 
Q 3156 559 3463 722 
L 3463 178 
Q 3153 47 2828 -22 
Q 2503 -91 2169 -91 
Q 1331 -91 842 396 
Q 353 884 353 1716 
Q 353 2575 817 3079 
Q 1281 3584 2069 3584 
Q 2775 3584 3186 3129 
Q 3597 2675 3597 1894 
z
M 3022 2063 
Q 3016 2534 2758 2815 
Q 2500 3097 2075 3097 
Q 1594 3097 1305 2825 
Q 1016 2553 972 2059 
L 3022 2063 
z
" transform="scale(0.015625)"/>
       <path id="DejaVuSans-4f" d="M 2522 4238 
Q 1834 4238 1429 3725 
Q 1025 3213 1025 2328 
Q 1025 1447 1429 934 
Q 1834 422 2522 422 
Q 3209 422 3611 934 
Q 4013 1447 4013 2328 
Q 4013 3213 3611 3725 
Q 3209 4238 2522 4238 
z
M 2522 4750 
Q 3503 4750 4090 4092 
Q 4678 3434 4678 2328 
Q 4678 1225 4090 567 
Q 3503 -91 2522 -91 
Q 1538 -91 948 565 
Q 359 1222 359 2328 
Q 359 3434 948 4092 
Q 1538 4750 2522 4750 
z
" transform="scale(0.015625)"/>
       <path id="DejaVuSans-66" d="M 2375 4863 
L 2375 4384 
L 1825 4384 
Q 1516 4384 1395 4259 
Q 1275 4134 1275 3809 
L 1275 3500 
L 2222 3500 
L 2222 3053 
L 1275 3053 
L 1275 0 
L 697 0 
L 697 3053 
L 147 3053 
L 147 3500 
L 697 3500 
L 697 3744 
Q 697 4328 969 4595 
Q 1241 4863 1831 4863 
L 2375 4863 
z
" transform="scale(0.015625)"/>
       <path id="DejaVuSans-61" d="M 2194 1759 
Q 1497 1759 1228 1600 
Q 959 1441 959 1056 
Q 959 750 1161 570 
Q 1363 391 1709 391 
Q 2188 391 2477 730 
Q 2766 1069 2766 1631 
L 2766 1759 
L 2194 1759 
z
M 3341 1997 
L 3341 0 
L 2766 0 
L 2766 531 
Q 2569 213 2275 61 
Q 1981 -91 1556 -91 
Q 1019 -91 701 211 
Q 384 513 384 1019 
Q 384 1609 779 1909 
Q 1175 2209 1959 2209 
L 2766 2209 
L 2766 2266 
Q 2766 2663 2505 2880 
Q 2244 3097 1772 3097 
Q 1472 3097 1187 3025 
Q 903 2953 641 2809 
L 641 3341 
Q 956 3463 1253 3523 
Q 1550 3584 1831 3584 
Q 2591 3584 2966 3190 
Q 3341 2797 3341 1997 
z
" transform="scale(0.015625)"/>
       <path id="DejaVuSans-67" d="M 2906 1791 
Q 2906 2416 2648 2759 
Q 2391 3103 1925 3103 
Q 1463 3103 1205 2759 
Q 947 2416 947 1791 
Q 947 1169 1205 825 
Q 1463 481 1925 481 
Q 2391 481 2648 825 
Q 2906 1169 2906 1791 
z
M 3481 434 
Q 3481 -459 3084 -895 
Q 2688 -1331 1869 -1331 
Q 1566 -1331 1297 -1286 
Q 1028 -1241 775 -1147 
L 775 -588 
Q 1028 -725 1275 -790 
Q 1522 -856 1778 -856 
Q 2344 -856 2625 -561 
Q 2906 -266 2906 331 
L 2906 616 
Q 2728 306 2450 153 
Q 2172 0 1784 0 
Q 1141 0 747 490 
Q 353 981 353 1791 
Q 353 2603 747 3093 
Q 1141 3584 1784 3584 
Q 2172 3584 2450 3431 
Q 2728 3278 2906 2969 
L 2906 3500 
L 3481 3500 
L 3481 434 
z
" transform="scale(0.015625)"/>
      </defs>
      <use xlink:href="#DejaVuSans-70"/>
      <use xlink:href="#DejaVuSans-65" transform="translate(63.476562 0)"/>
      <use xlink:href="#DejaVuSans-4f" transform="translate(125 0)"/>
      <use xlink:href="#DejaVuSans-66" transform="translate(203.710938 0)"/>
      <use xlink:href="#DejaVuSans-66" transform="translate(238.916016 0)"/>
      <use xlink:href="#DejaVuSans-50" transform="translate(274.121094 0)"/>
      <use xlink:href="#DejaVuSans-61" transform="translate(329.923828 0)"/>
      <use xlink:href="#DejaVuSans-67" transform="translate(391.203125 0)"/>
     </g>
    </g>
    <g clip-path="url(#pa1738dd476)">
     <!-- eConnect -->
     <g style="fill: #ffffff" transform="translate(90.713957 309.669027) scale(0.07 -0.07)">
      <defs>
       <path id="DejaVuSans-43" d="M 4122 4306 
L 4122 3641 
Q 3803 3938 3442 4084 
Q 3081 4231 2675 4231 
Q 1875 4231 1450 3742 
Q 1025 3253 1025 2328 
Q 1025 1406 1450 917 
Q 1875 428 2675 428 
Q 3081 428 3442 575 
Q 3803 722 4122 1019 
L 4122 359 
Q 3791 134 3420 21 
Q 3050 -91 2638 -91 
Q 1578 -91 968 557 
Q 359 1206 359 2328 
Q 359 3453 968 4101 
Q 1578 4750 2638 4750 
Q 3056 4750 3426 4639 
Q 3797 4528 4122 4306 
z
" transform="scale(0.015625)"/>
       <path id="DejaVuSans-63" d="M 3122 3366 
L 3122 2828 
Q 2878 2963 2633 3030 
Q 2388 3097 2138 3097 
Q 1578 3097 1268 2742 
Q 959 2388 959 1747 
Q 959 1106 1268 751 
Q 1578 397 2138 397 
Q 2388 397 2633 464 
Q 2878 531 3122 666 
L 3122 134 
Q 2881 22 2623 -34 
Q 2366 -91 2075 -91 
Q 1284 -91 818 406 
Q 353 903 353 1747 
Q 353 2603 823 3093 
Q 1294 3584 2113 3584 
Q 2378 3584 2631 3529 
Q 2884 3475 3122 3366 
z
" transform="scale(0.015625)"/>
       <path id="DejaVuSans-74" d="M 1172 4494 
L 1172 3500 
L 2356 3500 
L 2356 3053 
L 1172 3053 
L 1172 1153 
Q 1172 725 1289 603 
Q 1406 481 1766 481 
L 2356 481 
L 2356 0 
L 1766 0 
Q 1100 0 847 248 
Q 594 497 594 1153 
L 594 3053 
L 172 3053 
L 172 3500 
L 594 3500 
L 594 4494 
L 1172 4494 
z
" transform="scale(0.015625)"/>
      </defs>
      <use xlink:href="#DejaVuSans-65"/>
      <use xlink:href="#DejaVuSans-43" transform="translate(61.523438 0)"/>
      <use xlink:href="#DejaVuSans-6f" transform="translate(131.347656 0)"/>
      <use xlink:href="#DejaVuSans-6e" transform="translate(192.529297 0)"/>
      <use xlink:href="#DejaVuSans-6e" transform="translate(255.908203 0)"/>
      <use xlink:href="#DejaVuSans-65" transform="translate(319.287109 0)"/>
      <use xlink:href="#DejaVuSans-63" transform="translate(380.810547 0)"/>
      <use xlink:href="#DejaVuSans-74" transform="translate(435.791016 0)"/>
     </g>
    </g>
    <g clip-path="url(#pa1738dd476)">
     <!-- or -->
     <g style="fill: #ffffff" transform="translate(103.759114 317.507496) scale(0.07 -0.07)">
      <defs>
       <path id="DejaVuSans-72" d="M 2631 2963 
Q 2534 3019 2420 3045 
Q 2306 3072 2169 3072 
Q 1681 3072 1420 2755 
Q 1159 2438 1159 1844 
L 1159 0 
L 581 0 
L 581 3500 
L 1159 3500 
L 1159 2956 
Q 1341 3275 1631 3429 
Q 1922 3584 2338 3584 
Q 2397 3584 2469 3576 
Q 2541 3569 2628 3553 
L 2631 2963 
z
" transform="scale(0.015625)"/>
      </defs>
      <use xlink:href="#DejaVuSans-6f"/>
      <use xlink:href="#DejaVuSans-72" transform="translate(61.181641 0)"/>
     </g>
    </g>
   </g>
   <g id="text_7">
    <g clip-path="url(#pa1738dd476)">
     <!-- GlobeVal -->
     <g style="fill: #ffffff" transform="translate(237.938083 301.830558) scale(0.07 -0.07)">
      <defs>
       <path id="DejaVuSans-47" d="M 3809 666 
L 3809 1919 
L 2778 1919 
L 2778 2438 
L 4434 2438 
L 4434 434 
Q 4069 175 3628 42 
Q 3188 -91 2688 -91 
Q 1594 -91 976 548 
Q 359 1188 359 2328 
Q 359 3472 976 4111 
Q 1594 4750 2688 4750 
Q 3144 4750 3555 4637 
Q 3966 4525 4313 4306 
L 4313 3634 
Q 3963 3931 3569 4081 
Q 3175 4231 2741 4231 
Q 1884 4231 1454 3753 
Q 1025 3275 1025 2328 
Q 1025 1384 1454 906 
Q 1884 428 2741 428 
Q 3075 428 3337 486 
Q 3600 544 3809 666 
z
" transform="scale(0.015625)"/>
       <path id="DejaVuSans-62" d="M 3116 1747 
Q 3116 2381 2855 2742 
Q 2594 3103 2138 3103 
Q 1681 3103 1420 2742 
Q 1159 2381 1159 1747 
Q 1159 1113 1420 752 
Q 1681 391 2138 391 
Q 2594 391 2855 752 
Q 3116 1113 3116 1747 
z
M 1159 2969 
Q 1341 3281 1617 3432 
Q 1894 3584 2278 3584 
Q 2916 3584 3314 3078 
Q 3713 2572 3713 1747 
Q 3713 922 3314 415 
Q 2916 -91 2278 -91 
Q 1894 -91 1617 61 
Q 1341 213 1159 525 
L 1159 0 
L 581 0 
L 581 4863 
L 1159 4863 
L 1159 2969 
z
" transform="scale(0.015625)"/>
       <path id="DejaVuSans-56" d="M 1831 0 
L 50 4666 
L 709 4666 
L 2188 738 
L 3669 4666 
L 4325 4666 
L 2547 0 
L 1831 0 
z
" transform="scale(0.015625)"/>
      </defs>
      <use xlink:href="#DejaVuSans-47"/>
      <use xlink:href="#DejaVuSans-6c" transform="translate(77.490234 0)"/>
      <use xlink:href="#DejaVuSans-6f" transform="translate(105.273438 0)"/>
      <use xlink:href="#DejaVuSans-62" transform="translate(166.455078 0)"/>
      <use xlink:href="#DejaVuSans-65" transform="translate(229.931641 0)"/>
      <use xlink:href="#DejaVuSans-56" transform="translate(291.455078 0)"/>
      <use xlink:href="#DejaVuSans-61" transform="translate(352.113281 0)"/>
      <use xlink:href="#DejaVuSans-6c" transform="translate(413.392578 0)"/>
     </g>
    </g>
    <g clip-path="url(#pa1738dd476)">
     <!-- ve -->
     <g style="fill: #ffffff" transform="translate(249.15449 309.669027) scale(0.07 -0.07)">
      <defs>
       <path id="DejaVuSans-76" d="M 191 3500 
L 800 3500 
L 1894 563 
L 2988 3500 
L 3597 3500 
L 2284 0 
L 1503 0 
L 191 3500 
z
" transform="scale(0.015625)"/>
      </defs>
      <use xlink:href="#DejaVuSans-76"/>
      <use xlink:href="#DejaVuSans-65" transform="translate(59.179688 0)"/>
     </g>
    </g>
   </g>
   <g id="text_8">
    <g clip-path="url(#pa1738dd476)">
     <!-- 66KL21 -->
     <g style="fill: #ffffff" transform="translate(353.813532 254.990311) scale(0.07 -0.07)">
      <defs>
       <path id="DejaVuSans-36" d="M 2113 2584 
Q 1688 2584 1439 2293 
Q 1191 2003 1191 1497 
Q 1191 994 1439 701 
Q 1688 409 2113 409 
Q 2538 409 2786 701 
Q 3034 994 3034 1497 
Q 3034 2003 2786 2293 
Q 2538 2584 2113 2584 
z
M 3366 4563 
L 3366 3988 
Q 3128 4100 2886 4159 
Q 2644 4219 2406 4219 
Q 1781 4219 1451 3797 
Q 1122 3375 1075 2522 
Q 1259 2794 1537 2939 
Q 1816 3084 2150 3084 
Q 2853 3084 3261 2657 
Q 3669 2231 3669 1497 
Q 3669 778 3244 343 
Q 2819 -91 2113 -91 
Q 1303 -91 875 529 
Q 447 1150 447 2328 
Q 447 3434 972 4092 
Q 1497 4750 2381 4750 
Q 2619 4750 2861 4703 
Q 3103 4656 3366 4563 
z
" transform="scale(0.015625)"/>
       <path id="DejaVuSans-4b" d="M 628 4666 
L 1259 4666 
L 1259 2694 
L 3353 4666 
L 4166 4666 
L 1850 2491 
L 4331 0 
L 3500 0 
L 1259 2247 
L 1259 0 
L 628 0 
L 628 4666 
z
" transform="scale(0.015625)"/>
       <path id="DejaVuSans-4c" d="M 628 4666 
L 1259 4666 
L 1259 531 
L 3531 531 
L 3531 0 
L 628 0 
L 628 4666 
z
" transform="scale(0.015625)"/>
      </defs>
      <use xlink:href="#DejaVuSans-36"/>
      <use xlink:href="#DejaVuSans-36" transform="translate(63.623047 0)"/>
      <use xlink:href="#DejaVuSans-4b" transform="translate(127.246094 0)"/>
      <use xlink:href="#DejaVuSans-4c" transform="translate(192.822266 0)"/>
      <use xlink:href="#DejaVuSans-32" transform="translate(248.535156 0)"/>
      <use xlink:href="#DejaVuSans-31" transform="translate(312.158203 0)"/>
     </g>
    </g>
   </g>
   <g id="text_9">
    <g clip-path="url(#pa1738dd476)">
     <!-- 75SA21 -->
     <g style="fill: #ffffff" transform="translate(402.057173 254.990311) scale(0.07 -0.07)">
      <defs>
       <path id="DejaVuSans-53" d="M 3425 4513 
L 3425 3897 
Q 3066 4069 2747 4153 
Q 2428 4238 2131 4238 
Q 1616 4238 1336 4038 
Q 1056 3838 1056 3469 
Q 1056 3159 1242 3001 
Q 1428 2844 1947 2747 
L 2328 2669 
Q 3034 2534 3370 2195 
Q 3706 1856 3706 1288 
Q 3706 609 3251 259 
Q 2797 -91 1919 -91 
Q 1588 -91 1214 -16 
Q 841 59 441 206 
L 441 856 
Q 825 641 1194 531 
Q 1563 422 1919 422 
Q 2459 422 2753 634 
Q 3047 847 3047 1241 
Q 3047 1584 2836 1778 
Q 2625 1972 2144 2069 
L 1759 2144 
Q 1053 2284 737 2584 
Q 422 2884 422 3419 
Q 422 4038 858 4394 
Q 1294 4750 2059 4750 
Q 2388 4750 2728 4690 
Q 3069 4631 3425 4513 
z
" transform="scale(0.015625)"/>
       <path id="DejaVuSans-41" d="M 2188 4044 
L 1331 1722 
L 3047 1722 
L 2188 4044 
z
M 1831 4666 
L 2547 4666 
L 4325 0 
L 3669 0 
L 3244 1197 
L 1141 1197 
L 716 0 
L 50 0 
L 1831 4666 
z
" transform="scale(0.015625)"/>
      </defs>
      <use xlink:href="#DejaVuSans-37"/>
      <use xlink:href="#DejaVuSans-35" transform="translate(63.623047 0)"/>
      <use xlink:href="#DejaVuSans-53" transform="translate(127.246094 0)"/>
      <use xlink:href="#DejaVuSans-41" transform="translate(192.597656 0)"/>
      <use xlink:href="#DejaVuSans-32" transform="translate(261.005859 0)"/>
      <use xlink:href="#DejaVuSans-31" transform="translate(324.628906 0)"/>
     </g>
    </g>
   </g>
   <g id="text_10">
    <g clip-path="url(#pa1738dd476)">
     <!-- PipeRedu -->
     <g style="fill: #ffffff" transform="translate(448.078861 251.602968) scale(0.07 -0.07)">
      <defs>
       <path id="DejaVuSans-52" d="M 2841 2188 
Q 3044 2119 3236 1894 
Q 3428 1669 3622 1275 
L 4263 0 
L 3584 0 
L 2988 1197 
Q 2756 1666 2539 1819 
Q 2322 1972 1947 1972 
L 1259 1972 
L 1259 0 
L 628 0 
L 628 4666 
L 2053 4666 
Q 2853 4666 3247 4331 
Q 3641 3997 3641 3322 
Q 3641 2881 3436 2590 
Q 3231 2300 2841 2188 
z
M 1259 4147 
L 1259 2491 
L 2053 2491 
Q 2509 2491 2742 2702 
Q 2975 2913 2975 3322 
Q 2975 3731 2742 3939 
Q 2509 4147 2053 4147 
L 1259 4147 
z
" transform="scale(0.015625)"/>
       <path id="DejaVuSans-64" d="M 2906 2969 
L 2906 4863 
L 3481 4863 
L 3481 0 
L 2906 0 
L 2906 525 
Q 2725 213 2448 61 
Q 2172 -91 1784 -91 
Q 1150 -91 751 415 
Q 353 922 353 1747 
Q 353 2572 751 3078 
Q 1150 3584 1784 3584 
Q 2172 3584 2448 3432 
Q 2725 3281 2906 2969 
z
M 947 1747 
Q 947 1113 1208 752 
Q 1469 391 1925 391 
Q 2381 391 2643 752 
Q 2906 1113 2906 1747 
Q 2906 2381 2643 2742 
Q 2381 3103 1925 3103 
Q 1469 3103 1208 2742 
Q 947 2381 947 1747 
z
" transform="scale(0.015625)"/>
       <path id="DejaVuSans-75" d="M 544 1381 
L 544 3500 
L 1119 3500 
L 1119 1403 
Q 1119 906 1312 657 
Q 1506 409 1894 409 
Q 2359 409 2629 706 
Q 2900 1003 2900 1516 
L 2900 3500 
L 3475 3500 
L 3475 0 
L 2900 0 
L 2900 538 
Q 2691 219 2414 64 
Q 2138 -91 1772 -91 
Q 1169 -91 856 284 
Q 544 659 544 1381 
z
M 1991 3584 
L 1991 3584 
z
" transform="scale(0.015625)"/>
      </defs>
      <use xlink:href="#DejaVuSans-50"/>
      <use xlink:href="#DejaVuSans-69" transform="translate(58.052734 0)"/>
      <use xlink:href="#DejaVuSans-70" transform="translate(85.835938 0)"/>
      <use xlink:href="#DejaVuSans-65" transform="translate(149.3125 0)"/>
      <use xlink:href="#DejaVuSans-52" transform="translate(210.835938 0)"/>
      <use xlink:href="#DejaVuSans-65" transform="translate(275.818359 0)"/>
      <use xlink:href="#DejaVuSans-64" transform="translate(337.341797 0)"/>
      <use xlink:href="#DejaVuSans-75" transform="translate(400.818359 0)"/>
     </g>
    </g>
    <g clip-path="url(#pa1738dd476)">
     <!-- cer -->
     <g style="fill: #ffffff" transform="translate(458.809642 259.441436) scale(0.07 -0.07)">
      <use xlink:href="#DejaVuSans-63"/>
      <use xlink:href="#DejaVuSans-65" transform="translate(54.980469 0)"/>
      <use xlink:href="#DejaVuSans-72" transform="translate(116.503906 0)"/>
     </g>
    </g>
   </g>
   <g id="text_11">
    <g clip-path="url(#pa1738dd476)">
     <!-- 73KH12 -->
     <g style="fill: #ffffff" transform="translate(499.171721 254.990311) scale(0.07 -0.07)">
      <defs>
       <path id="DejaVuSans-33" d="M 2597 2516 
Q 3050 2419 3304 2112 
Q 3559 1806 3559 1356 
Q 3559 666 3084 287 
Q 2609 -91 1734 -91 
Q 1441 -91 1130 -33 
Q 819 25 488 141 
L 488 750 
Q 750 597 1062 519 
Q 1375 441 1716 441 
Q 2309 441 2620 675 
Q 2931 909 2931 1356 
Q 2931 1769 2642 2001 
Q 2353 2234 1838 2234 
L 1294 2234 
L 1294 2753 
L 1863 2753 
Q 2328 2753 2575 2939 
Q 2822 3125 2822 3475 
Q 2822 3834 2567 4026 
Q 2313 4219 1838 4219 
Q 1578 4219 1281 4162 
Q 984 4106 628 3988 
L 628 4550 
Q 988 4650 1302 4700 
Q 1616 4750 1894 4750 
Q 2613 4750 3031 4423 
Q 3450 4097 3450 3541 
Q 3450 3153 3228 2886 
Q 3006 2619 2597 2516 
z
" transform="scale(0.015625)"/>
      </defs>
      <use xlink:href="#DejaVuSans-37"/>
      <use xlink:href="#DejaVuSans-33" transform="translate(63.623047 0)"/>
      <use xlink:href="#DejaVuSans-4b" transform="translate(127.246094 0)"/>
      <use xlink:href="#DejaVuSans-48" transform="translate(192.822266 0)"/>
      <use xlink:href="#DejaVuSans-31" transform="translate(268.017578 0)"/>
      <use xlink:href="#DejaVuSans-32" transform="translate(331.640625 0)"/>
     </g>
    </g>
   </g>
   <g id="text_12">
    <g clip-path="url(#pa1738dd476)">
     <!-- SpringLo -->
     <g style="fill: #ffffff" transform="translate(724.854493 231.207601) scale(0.07 -0.07)">
      <use xlink:href="#DejaVuSans-53"/>
      <use xlink:href="#DejaVuSans-70" transform="translate(63.476562 0)"/>
      <use xlink:href="#DejaVuSans-72" transform="translate(126.953125 0)"/>
      <use xlink:href="#DejaVuSans-69" transform="translate(168.066406 0)"/>
      <use xlink:href="#DejaVuSans-6e" transform="translate(195.849609 0)"/>
      <use xlink:href="#DejaVuSans-67" transform="translate(259.228516 0)"/>
      <use xlink:href="#DejaVuSans-4c" transform="translate(322.705078 0)"/>
      <use xlink:href="#DejaVuSans-6f" transform="translate(376.667969 0)"/>
     </g>
    </g>
    <g clip-path="url(#pa1738dd476)">
     <!-- adedGlob -->
     <g style="fill: #ffffff" transform="translate(723.389962 239.04607) scale(0.07 -0.07)">
      <use xlink:href="#DejaVuSans-61"/>
      <use xlink:href="#DejaVuSans-64" transform="translate(61.279297 0)"/>
      <use xlink:href="#DejaVuSans-65" transform="translate(124.755859 0)"/>
      <use xlink:href="#DejaVuSans-64" transform="translate(186.279297 0)"/>
      <use xlink:href="#DejaVuSans-47" transform="translate(249.755859 0)"/>
      <use xlink:href="#DejaVuSans-6c" transform="translate(327.246094 0)"/>
      <use xlink:href="#DejaVuSans-6f" transform="translate(355.029297 0)"/>
      <use xlink:href="#DejaVuSans-62" transform="translate(416.210938 0)"/>
     </g>
    </g>
    <g clip-path="url(#pa1738dd476)">
     <!-- eSafetyV -->
     <g style="fill: #ffffff" transform="translate(724.436134 246.884539) scale(0.07 -0.07)">
      <defs>
       <path id="DejaVuSans-79" d="M 2059 -325 
Q 1816 -950 1584 -1140 
Q 1353 -1331 966 -1331 
L 506 -1331 
L 506 -850 
L 844 -850 
Q 1081 -850 1212 -737 
Q 1344 -625 1503 -206 
L 1606 56 
L 191 3500 
L 800 3500 
L 1894 763 
L 2988 3500 
L 3597 3500 
L 2059 -325 
z
" transform="scale(0.015625)"/>
      </defs>
      <use xlink:href="#DejaVuSans-65"/>
      <use xlink:href="#DejaVuSans-53" transform="translate(61.523438 0)"/>
      <use xlink:href="#DejaVuSans-61" transform="translate(125 0)"/>
      <use xlink:href="#DejaVuSans-66" transform="translate(186.279297 0)"/>
      <use xlink:href="#DejaVuSans-65" transform="translate(221.484375 0)"/>
      <use xlink:href="#DejaVuSans-74" transform="translate(283.007812 0)"/>
      <use xlink:href="#DejaVuSans-79" transform="translate(322.216797 0)"/>
      <use xlink:href="#DejaVuSans-56" transform="translate(381.396484 0)"/>
     </g>
    </g>
    <g clip-path="url(#pa1738dd476)">
     <!-- alve -->
     <g style="fill: #ffffff" transform="translate(732.837774 254.723007) scale(0.07 -0.07)">
      <use xlink:href="#DejaVuSans-61"/>
      <use xlink:href="#DejaVuSans-6c" transform="translate(61.279297 0)"/>
      <use xlink:href="#DejaVuSans-76" transform="translate(89.0625 0)"/>
      <use xlink:href="#DejaVuSans-65" transform="translate(148.242188 0)"/>
     </g>
    </g>
   </g>
   <g id="text_13">
    <g clip-path="url(#pa1738dd476)">
     <!-- PipeTee -->
     <g style="fill: #ffffff" transform="translate(662.043935 292.661004) scale(0.07 -0.07)">
      <use xlink:href="#DejaVuSans-50"/>
      <use xlink:href="#DejaVuSans-69" transform="translate(58.052734 0)"/>
      <use xlink:href="#DejaVuSans-70" transform="translate(85.835938 0)"/>
      <use xlink:href="#DejaVuSans-65" transform="translate(149.3125 0)"/>
      <use xlink:href="#DejaVuSans-54" transform="translate(210.835938 0)"/>
      <use xlink:href="#DejaVuSans-65" transform="translate(254.919922 0)"/>
      <use xlink:href="#DejaVuSans-65" transform="translate(316.443359 0)"/>
     </g>
    </g>
   </g>
   <g id="text_14">
    <g clip-path="url(#pa1738dd476)">
     <!-- PipeTee -->
     <g style="fill: #ffffff" transform="translate(597.137206 254.990311) scale(0.07 -0.07)">
      <use xlink:href="#DejaVuSans-50"/>
      <use xlink:href="#DejaVuSans-69" transform="translate(58.052734 0)"/>
      <use xlink:href="#DejaVuSans-70" transform="translate(85.835938 0)"/>
      <use xlink:href="#DejaVuSans-65" transform="translate(149.3125 0)"/>
      <use xlink:href="#DejaVuSans-54" transform="translate(210.835938 0)"/>
      <use xlink:href="#DejaVuSans-65" transform="translate(254.919922 0)"/>
      <use xlink:href="#DejaVuSans-65" transform="translate(316.443359 0)"/>
     </g>
    </g>
   </g>
   <g id="text_15">
    <g clip-path="url(#pa1738dd476)">
     <!-- 73KH12 -->
     <g style="fill: #ffffff" transform="translate(661.438545 204.762721) scale(0.07 -0.07)">
      <use xlink:href="#DejaVuSans-37"/>
      <use xlink:href="#DejaVuSans-33" transform="translate(63.623047 0)"/>
      <use xlink:href="#DejaVuSans-4b" transform="translate(127.246094 0)"/>
      <use xlink:href="#DejaVuSans-48" transform="translate(192.822266 0)"/>
      <use xlink:href="#DejaVuSans-31" transform="translate(268.017578 0)"/>
      <use xlink:href="#DejaVuSans-32" transform="translate(331.640625 0)"/>
     </g>
    </g>
   </g>
   <g id="text_16">
    <g clip-path="url(#pa1738dd476)">
     <!-- PipeTee -->
     <g style="fill: #ffffff" transform="translate(726.950665 342.888595) scale(0.07 -0.07)">
      <use xlink:href="#DejaVuSans-50"/>
      <use xlink:href="#DejaVuSans-69" transform="translate(58.052734 0)"/>
      <use xlink:href="#DejaVuSans-70" transform="translate(85.835938 0)"/>
      <use xlink:href="#DejaVuSans-65" transform="translate(149.3125 0)"/>
      <use xlink:href="#DejaVuSans-54" transform="translate(210.835938 0)"/>
      <use xlink:href="#DejaVuSans-65" transform="translate(254.919922 0)"/>
      <use xlink:href="#DejaVuSans-65" transform="translate(316.443359 0)"/>
     </g>
    </g>
   </g>
   <g id="text_17">
    <g clip-path="url(#pa1738dd476)">
     <!-- 73KH12 -->
     <g style="fill: #ffffff" transform="translate(791.252004 317.7748) scale(0.07 -0.07)">
      <use xlink:href="#DejaVuSans-37"/>
      <use xlink:href="#DejaVuSans-33" transform="translate(63.623047 0)"/>
      <use xlink:href="#DejaVuSans-4b" transform="translate(127.246094 0)"/>
      <use xlink:href="#DejaVuSans-48" transform="translate(192.822266 0)"/>
      <use xlink:href="#DejaVuSans-31" transform="translate(268.017578 0)"/>
      <use xlink:href="#DejaVuSans-32" transform="translate(331.640625 0)"/>
     </g>
    </g>
   </g>
   <g id="text_18">
    <g clip-path="url(#pa1738dd476)">
     <!-- BlindFla -->
     <g style="fill: #ffffff" transform="translate(839.850567 314.387456) scale(0.07 -0.07)">
      <defs>
       <path id="DejaVuSans-42" d="M 1259 2228 
L 1259 519 
L 2272 519 
Q 2781 519 3026 730 
Q 3272 941 3272 1375 
Q 3272 1813 3026 2020 
Q 2781 2228 2272 2228 
L 1259 2228 
z
M 1259 4147 
L 1259 2741 
L 2194 2741 
Q 2656 2741 2882 2914 
Q 3109 3088 3109 3444 
Q 3109 3797 2882 3972 
Q 2656 4147 2194 4147 
L 1259 4147 
z
M 628 4666 
L 2241 4666 
Q 2963 4666 3353 4366 
Q 3744 4066 3744 3513 
Q 3744 3084 3544 2831 
Q 3344 2578 2956 2516 
Q 3422 2416 3680 2098 
Q 3938 1781 3938 1306 
Q 3938 681 3513 340 
Q 3088 0 2303 0 
L 628 0 
L 628 4666 
z
" transform="scale(0.015625)"/>
      </defs>
      <use xlink:href="#DejaVuSans-42"/>
      <use xlink:href="#DejaVuSans-6c" transform="translate(68.603516 0)"/>
      <use xlink:href="#DejaVuSans-69" transform="translate(96.386719 0)"/>
      <use xlink:href="#DejaVuSans-6e" transform="translate(124.169922 0)"/>
      <use xlink:href="#DejaVuSans-64" transform="translate(187.548828 0)"/>
      <use xlink:href="#DejaVuSans-46" transform="translate(251.025391 0)"/>
      <use xlink:href="#DejaVuSans-6c" transform="translate(308.544922 0)"/>
      <use xlink:href="#DejaVuSans-61" transform="translate(336.328125 0)"/>
     </g>
    </g>
    <g clip-path="url(#pa1738dd476)">
     <!-- nge -->
     <g style="fill: #ffffff" transform="translate(847.173223 322.225925) scale(0.07 -0.07)">
      <use xlink:href="#DejaVuSans-6e"/>
      <use xlink:href="#DejaVuSans-67" transform="translate(63.378906 0)"/>
      <use xlink:href="#DejaVuSans-65" transform="translate(126.855469 0)"/>
     </g>
    </g>
   </g>
   <g id="text_19">
    <g clip-path="url(#pa1738dd476)">
     <!-- 73KH12 -->
     <g style="fill: #ffffff" transform="translate(791.252004 418.229981) scale(0.07 -0.07)">
      <use xlink:href="#DejaVuSans-37"/>
      <use xlink:href="#DejaVuSans-33" transform="translate(63.623047 0)"/>
      <use xlink:href="#DejaVuSans-4b" transform="translate(127.246094 0)"/>
      <use xlink:href="#DejaVuSans-48" transform="translate(192.822266 0)"/>
      <use xlink:href="#DejaVuSans-31" transform="translate(268.017578 0)"/>
      <use xlink:href="#DejaVuSans-32" transform="translate(331.640625 0)"/>
     </g>
    </g>
   </g>
   <g id="text_20">
    <g clip-path="url(#pa1738dd476)">
     <!-- PipeTee -->
     <g style="fill: #ffffff" transform="translate(840.537442 418.229981) scale(0.07 -0.07)">
      <use xlink:href="#DejaVuSans-50"/>
      <use xlink:href="#DejaVuSans-69" transform="translate(58.052734 0)"/>
      <use xlink:href="#DejaVuSans-70" transform="translate(85.835938 0)"/>
      <use xlink:href="#DejaVuSans-65" transform="translate(149.3125 0)"/>
      <use xlink:href="#DejaVuSans-54" transform="translate(210.835938 0)"/>
      <use xlink:href="#DejaVuSans-65" transform="translate(254.919922 0)"/>
      <use xlink:href="#DejaVuSans-65" transform="translate(316.443359 0)"/>
     </g>
    </g>
   </g>
   <g id="text_21">
    <g clip-path="url(#pa1738dd476)">
     <!-- PipeTee -->
     <g style="fill: #ffffff" transform="translate(905.444171 468.457571) scale(0.07 -0.07)">
      <use xlink:href="#DejaVuSans-50"/>
      <use xlink:href="#DejaVuSans-69" transform="translate(58.052734 0)"/>
      <use xlink:href="#DejaVuSans-70" transform="translate(85.835938 0)"/>
      <use xlink:href="#DejaVuSans-65" transform="translate(149.3125 0)"/>
      <use xlink:href="#DejaVuSans-54" transform="translate(210.835938 0)"/>
      <use xlink:href="#DejaVuSans-65" transform="translate(254.919922 0)"/>
      <use xlink:href="#DejaVuSans-65" transform="translate(316.443359 0)"/>
     </g>
    </g>
   </g>
   <g id="text_22">
    <g clip-path="url(#pa1738dd476)">
     <!-- 73KH12 -->
     <g style="fill: #ffffff" transform="translate(969.74551 443.343776) scale(0.07 -0.07)">
      <use xlink:href="#DejaVuSans-37"/>
      <use xlink:href="#DejaVuSans-33" transform="translate(63.623047 0)"/>
      <use xlink:href="#DejaVuSans-4b" transform="translate(127.246094 0)"/>
      <use xlink:href="#DejaVuSans-48" transform="translate(192.822266 0)"/>
      <use xlink:href="#DejaVuSans-31" transform="translate(268.017578 0)"/>
      <use xlink:href="#DejaVuSans-32" transform="translate(331.640625 0)"/>
     </g>
    </g>
   </g>
   <g id="text_23">
    <g clip-path="url(#pa1738dd476)">
     <!-- BlindFla -->
     <g style="fill: #ffffff" transform="translate(1018.344073 439.956432) scale(0.07 -0.07)">
      <use xlink:href="#DejaVuSans-42"/>
      <use xlink:href="#DejaVuSans-6c" transform="translate(68.603516 0)"/>
      <use xlink:href="#DejaVuSans-69" transform="translate(96.386719 0)"/>
      <use xlink:href="#DejaVuSans-6e" transform="translate(124.169922 0)"/>
      <use xlink:href="#DejaVuSans-64" transform="translate(187.548828 0)"/>
      <use xlink:href="#DejaVuSans-46" transform="translate(251.025391 0)"/>
      <use xlink:href="#DejaVuSans-6c" transform="translate(308.544922 0)"/>
      <use xlink:href="#DejaVuSans-61" transform="translate(336.328125 0)"/>
     </g>
    </g>
    <g clip-path="url(#pa1738dd476)">
     <!-- nge -->
     <g style="fill: #ffffff" transform="translate(1025.66673 447.794901) scale(0.07 -0.07)">
      <use xlink:href="#DejaVuSans-6e"/>
      <use xlink:href="#DejaVuSans-67" transform="translate(63.378906 0)"/>
      <use xlink:href="#DejaVuSans-65" transform="translate(126.855469 0)"/>
     </g>
    </g>
   </g>
   <g id="text_24">
    <g clip-path="url(#pa1738dd476)">
     <!-- FlowOutP -->
     <g style="fill: #ffffff" transform="translate(967.135276 532.573145) scale(0.07 -0.07)">
      <use xlink:href="#DejaVuSans-46"/>
      <use xlink:href="#DejaVuSans-6c" transform="translate(57.519531 0)"/>
      <use xlink:href="#DejaVuSans-6f" transform="translate(85.302734 0)"/>
      <use xlink:href="#DejaVuSans-77" transform="translate(146.484375 0)"/>
      <use xlink:href="#DejaVuSans-4f" transform="translate(228.271484 0)"/>
      <use xlink:href="#DejaVuSans-75" transform="translate(306.982422 0)"/>
      <use xlink:href="#DejaVuSans-74" transform="translate(370.361328 0)"/>
      <use xlink:href="#DejaVuSans-50" transform="translate(409.570312 0)"/>
     </g>
    </g>
    <g clip-path="url(#pa1738dd476)">
     <!-- ipeOffPa -->
     <g style="fill: #ffffff" transform="translate(968.915354 540.411614) scale(0.07 -0.07)">
      <use xlink:href="#DejaVuSans-69"/>
      <use xlink:href="#DejaVuSans-70" transform="translate(27.783203 0)"/>
      <use xlink:href="#DejaVuSans-65" transform="translate(91.259766 0)"/>
      <use xlink:href="#DejaVuSans-4f" transform="translate(152.783203 0)"/>
      <use xlink:href="#DejaVuSans-66" transform="translate(231.494141 0)"/>
      <use xlink:href="#DejaVuSans-66" transform="translate(266.699219 0)"/>
      <use xlink:href="#DejaVuSans-50" transform="translate(301.904297 0)"/>
      <use xlink:href="#DejaVuSans-61" transform="translate(357.707031 0)"/>
     </g>
    </g>
    <g clip-path="url(#pa1738dd476)">
     <!-- geConnec -->
     <g style="fill: #ffffff" transform="translate(966.104964 548.250082) scale(0.07 -0.07)">
      <use xlink:href="#DejaVuSans-67"/>
      <use xlink:href="#DejaVuSans-65" transform="translate(63.476562 0)"/>
      <use xlink:href="#DejaVuSans-43" transform="translate(125 0)"/>
      <use xlink:href="#DejaVuSans-6f" transform="translate(194.824219 0)"/>
      <use xlink:href="#DejaVuSans-6e" transform="translate(256.005859 0)"/>
      <use xlink:href="#DejaVuSans-6e" transform="translate(319.384766 0)"/>
      <use xlink:href="#DejaVuSans-65" transform="translate(382.763672 0)"/>
      <use xlink:href="#DejaVuSans-63" transform="translate(444.287109 0)"/>
     </g>
    </g>
    <g clip-path="url(#pa1738dd476)">
     <!-- tor -->
     <g style="fill: #ffffff" transform="translate(978.627854 556.088551) scale(0.07 -0.07)">
      <use xlink:href="#DejaVuSans-74"/>
      <use xlink:href="#DejaVuSans-6f" transform="translate(39.208984 0)"/>
      <use xlink:href="#DejaVuSans-72" transform="translate(100.390625 0)"/>
     </g>
    </g>
   </g>
   <g id="text_25">
    <g clip-path="url(#pa1738dd476)">
     <!-- GlobeVal -->
     <g style="fill: #ffffff" transform="translate(951.912109 364.615046) scale(0.07 -0.07)">
      <use xlink:href="#DejaVuSans-47"/>
      <use xlink:href="#DejaVuSans-6c" transform="translate(77.490234 0)"/>
      <use xlink:href="#DejaVuSans-6f" transform="translate(105.273438 0)"/>
      <use xlink:href="#DejaVuSans-62" transform="translate(166.455078 0)"/>
      <use xlink:href="#DejaVuSans-65" transform="translate(229.931641 0)"/>
      <use xlink:href="#DejaVuSans-56" transform="translate(291.455078 0)"/>
      <use xlink:href="#DejaVuSans-61" transform="translate(352.113281 0)"/>
      <use xlink:href="#DejaVuSans-6c" transform="translate(413.392578 0)"/>
     </g>
    </g>
    <g clip-path="url(#pa1738dd476)">
     <!-- ve -->
     <g style="fill: #ffffff" transform="translate(963.128516 372.453515) scale(0.07 -0.07)">
      <use xlink:href="#DejaVuSans-76"/>
      <use xlink:href="#DejaVuSans-65" transform="translate(59.179688 0)"/>
     </g>
    </g>
   </g>
   <g id="text_26">
    <g clip-path="url(#pa1738dd476)">
     <!-- GlobeVal -->
     <g style="fill: #ffffff" transform="translate(448.884955 352.058149) scale(0.07 -0.07)">
      <use xlink:href="#DejaVuSans-47"/>
      <use xlink:href="#DejaVuSans-6c" transform="translate(77.490234 0)"/>
      <use xlink:href="#DejaVuSans-6f" transform="translate(105.273438 0)"/>
      <use xlink:href="#DejaVuSans-62" transform="translate(166.455078 0)"/>
      <use xlink:href="#DejaVuSans-65" transform="translate(229.931641 0)"/>
      <use xlink:href="#DejaVuSans-56" transform="translate(291.455078 0)"/>
      <use xlink:href="#DejaVuSans-61" transform="translate(352.113281 0)"/>
      <use xlink:href="#DejaVuSans-6c" transform="translate(413.392578 0)"/>
     </g>
    </g>
    <g clip-path="url(#pa1738dd476)">
     <!-- ve -->
     <g style="fill: #ffffff" transform="translate(460.101361 359.896618) scale(0.07 -0.07)">
      <use xlink:href="#DejaVuSans-76"/>
      <use xlink:href="#DejaVuSans-65" transform="translate(59.179688 0)"/>
     </g>
    </g>
   </g>
   <g id="text_27">
    <g clip-path="url(#pa1738dd476)">
     <!-- PV4712.0 -->
     <g style="fill: #ffffff" transform="translate(1112.869168 440.018229) scale(0.07 -0.07)">
      <defs>
       <path id="DejaVuSans-2e" d="M 684 794 
L 1344 794 
L 1344 0 
L 684 0 
L 684 794 
z
" transform="scale(0.015625)"/>
      </defs>
      <use xlink:href="#DejaVuSans-50"/>
      <use xlink:href="#DejaVuSans-56" transform="translate(60.302734 0)"/>
      <use xlink:href="#DejaVuSans-34" transform="translate(128.710938 0)"/>
      <use xlink:href="#DejaVuSans-37" transform="translate(192.333984 0)"/>
      <use xlink:href="#DejaVuSans-31" transform="translate(255.957031 0)"/>
      <use xlink:href="#DejaVuSans-32" transform="translate(319.580078 0)"/>
      <use xlink:href="#DejaVuSans-2e" transform="translate(383.203125 0)"/>
      <use xlink:href="#DejaVuSans-30" transform="translate(414.990234 0)"/>
     </g>
    </g>
    <g clip-path="url(#pa1738dd476)">
     <!-- 2_YC -->
     <g style="fill: #ffffff" transform="translate(1121.254402 447.856698) scale(0.07 -0.07)">
      <defs>
       <path id="DejaVuSans-5f" d="M 3263 -1063 
L 3263 -1509 
L -63 -1509 
L -63 -1063 
L 3263 -1063 
z
" transform="scale(0.015625)"/>
       <path id="DejaVuSans-59" d="M -13 4666 
L 666 4666 
L 1959 2747 
L 3244 4666 
L 3922 4666 
L 2272 2222 
L 2272 0 
L 1638 0 
L 1638 2222 
L -13 4666 
z
" transform="scale(0.015625)"/>
      </defs>
      <use xlink:href="#DejaVuSans-32"/>
      <use xlink:href="#DejaVuSans-5f" transform="translate(63.623047 0)"/>
      <use xlink:href="#DejaVuSans-59" transform="translate(113.623047 0)"/>
      <use xlink:href="#DejaVuSans-43" transform="translate(169.207031 0)"/>
     </g>
    </g>
   </g>
   <g id="text_28">
    <g clip-path="url(#pa1738dd476)">
     <!-- HV4750.0 -->
     <g style="fill: #ffffff" transform="translate(138.746504 50.754402) scale(0.07 -0.07)">
      <use xlink:href="#DejaVuSans-48"/>
      <use xlink:href="#DejaVuSans-56" transform="translate(75.195312 0)"/>
      <use xlink:href="#DejaVuSans-34" transform="translate(143.603516 0)"/>
      <use xlink:href="#DejaVuSans-37" transform="translate(207.226562 0)"/>
      <use xlink:href="#DejaVuSans-35" transform="translate(270.849609 0)"/>
      <use xlink:href="#DejaVuSans-30" transform="translate(334.472656 0)"/>
      <use xlink:href="#DejaVuSans-2e" transform="translate(398.095703 0)"/>
      <use xlink:href="#DejaVuSans-30" transform="translate(429.882812 0)"/>
     </g>
    </g>
    <g clip-path="url(#pa1738dd476)">
     <!-- 1_YC -->
     <g style="fill: #ffffff" transform="translate(147.653458 58.592871) scale(0.07 -0.07)">
      <use xlink:href="#DejaVuSans-31"/>
      <use xlink:href="#DejaVuSans-5f" transform="translate(63.623047 0)"/>
      <use xlink:href="#DejaVuSans-59" transform="translate(113.623047 0)"/>
      <use xlink:href="#DejaVuSans-43" transform="translate(169.207031 0)"/>
     </g>
    </g>
   </g>
   <g id="text_29">
    <g clip-path="url(#pa1738dd476)">
     <!-- TV4750.0 -->
     <g style="fill: #ffffff" transform="translate(398.867798 352.119946) scale(0.07 -0.07)">
      <use xlink:href="#DejaVuSans-54"/>
      <use xlink:href="#DejaVuSans-56" transform="translate(61.083984 0)"/>
      <use xlink:href="#DejaVuSans-34" transform="translate(129.492188 0)"/>
      <use xlink:href="#DejaVuSans-37" transform="translate(193.115234 0)"/>
      <use xlink:href="#DejaVuSans-35" transform="translate(256.738281 0)"/>
      <use xlink:href="#DejaVuSans-30" transform="translate(320.361328 0)"/>
      <use xlink:href="#DejaVuSans-2e" transform="translate(383.984375 0)"/>
      <use xlink:href="#DejaVuSans-30" transform="translate(415.771484 0)"/>
     </g>
    </g>
    <g clip-path="url(#pa1738dd476)">
     <!-- 3_YC -->
     <g style="fill: #ffffff" transform="translate(407.280376 359.958414) scale(0.07 -0.07)">
      <use xlink:href="#DejaVuSans-33"/>
      <use xlink:href="#DejaVuSans-5f" transform="translate(63.623047 0)"/>
      <use xlink:href="#DejaVuSans-59" transform="translate(113.623047 0)"/>
      <use xlink:href="#DejaVuSans-43" transform="translate(169.207031 0)"/>
     </g>
    </g>
   </g>
   <g id="text_30">
    <g clip-path="url(#pa1738dd476)">
     <!-- 4712.01 -->
     <g style="fill: #ffffff" transform="translate(887.973348 317.7748) scale(0.07 -0.07)">
      <use xlink:href="#DejaVuSans-34"/>
      <use xlink:href="#DejaVuSans-37" transform="translate(63.623047 0)"/>
      <use xlink:href="#DejaVuSans-31" transform="translate(127.246094 0)"/>
      <use xlink:href="#DejaVuSans-32" transform="translate(190.869141 0)"/>
      <use xlink:href="#DejaVuSans-2e" transform="translate(254.492188 0)"/>
      <use xlink:href="#DejaVuSans-30" transform="translate(286.279297 0)"/>
      <use xlink:href="#DejaVuSans-31" transform="translate(349.902344 0)"/>
     </g>
    </g>
   </g>
   <g id="text_31">
    <g clip-path="url(#pa1738dd476)">
     <!-- 4712.02 -->
     <g style="fill: #ffffff" transform="translate(1066.466855 443.343776) scale(0.07 -0.07)">
      <use xlink:href="#DejaVuSans-34"/>
      <use xlink:href="#DejaVuSans-37" transform="translate(63.623047 0)"/>
      <use xlink:href="#DejaVuSans-31" transform="translate(127.246094 0)"/>
      <use xlink:href="#DejaVuSans-32" transform="translate(190.869141 0)"/>
      <use xlink:href="#DejaVuSans-2e" transform="translate(254.492188 0)"/>
      <use xlink:href="#DejaVuSans-30" transform="translate(286.279297 0)"/>
      <use xlink:href="#DejaVuSans-32" transform="translate(349.902344 0)"/>
     </g>
    </g>
   </g>
   <g id="text_32">
    <g clip-path="url(#pa1738dd476)">
     <!-- 4750.01 -->
     <g style="fill: #ffffff" transform="translate(92.86591 54.079949) scale(0.07 -0.07)">
      <use xlink:href="#DejaVuSans-34"/>
      <use xlink:href="#DejaVuSans-37" transform="translate(63.623047 0)"/>
      <use xlink:href="#DejaVuSans-35" transform="translate(127.246094 0)"/>
      <use xlink:href="#DejaVuSans-30" transform="translate(190.869141 0)"/>
      <use xlink:href="#DejaVuSans-2e" transform="translate(254.492188 0)"/>
      <use xlink:href="#DejaVuSans-30" transform="translate(286.279297 0)"/>
      <use xlink:href="#DejaVuSans-31" transform="translate(349.902344 0)"/>
     </g>
    </g>
   </g>
   <g id="text_33">
    <g clip-path="url(#pa1738dd476)">
     <!-- 4750.03 -->
     <g style="fill: #ffffff" transform="translate(352.492829 355.445493) scale(0.07 -0.07)">
      <use xlink:href="#DejaVuSans-34"/>
      <use xlink:href="#DejaVuSans-37" transform="translate(63.623047 0)"/>
      <use xlink:href="#DejaVuSans-35" transform="translate(127.246094 0)"/>
      <use xlink:href="#DejaVuSans-30" transform="translate(190.869141 0)"/>
      <use xlink:href="#DejaVuSans-2e" transform="translate(254.492188 0)"/>
      <use xlink:href="#DejaVuSans-30" transform="translate(286.279297 0)"/>
      <use xlink:href="#DejaVuSans-33" transform="translate(349.902344 0)"/>
     </g>
    </g>
   </g>
  </g>
 </g>
 <defs>
  <clipPath id="pa1738dd476">
   <rect x="0" y="0" width="1236.96" height="592.56"/>
  </clipPath>
 </defs>
</svg>
